<?xml version="1.0" encoding="utf-8"?>
<!-- Generator: Adobe Illustrator 22.1.0, SVG Export Plug-In . SVG Version: 6.00 Build 0)  -->
<svg version="1.1" id="Layer_1" xmlns="http://www.w3.org/2000/svg" xmlns:xlink="http://www.w3.org/1999/xlink" x="0px" y="0px"
	 viewBox="0 0 1366 768" style="enable-background:new 0 0 1366 768;" xml:space="preserve">
<style type="text/css">
	.st0{fill:none;}
	.st1{fill:url(#rdw_3_);}
	.st2{fill:url(#rdw_4_);}
	.st3{fill:url(#ra_1_);}
	.st4{fill:url(#la_1_);}
	.st5{fill:url(#luw_1_);}
	.st6{fill:url(#ruw_1_);}
	.st7{fill:#FFFFFF;}
	.st8{fill:url(#SVGID_1_);}
	.st9{display:none;}
</style>
<g id="Layer_3">
	<rect x="-25" y="-7.3" class="st0" width="1442.7" height="800.7"/>
</g>
<g id="Layer_2_1_">
	
		<linearGradient id="rdw_3_" gradientUnits="userSpaceOnUse" x1="574.5621" y1="477.3948" x2="315.8249" y2="29.2491" gradientTransform="matrix(1 0 0 -1 0 768)">
		<stop  offset="7.924632e-03" style="stop-color:#1A1A1A"/>
		<stop  offset="2.267934e-02" style="stop-color:#1D201B"/>
		<stop  offset="0.1831" style="stop-color:#385829"/>
		<stop  offset="0.3209" style="stop-color:#4B8133"/>
		<stop  offset="0.4293" style="stop-color:#589A39"/>
		<stop  offset="0.4949" style="stop-color:#5CA33B"/>
		<stop  offset="0.5687" style="stop-color:#569638"/>
		<stop  offset="0.7039" style="stop-color:#467530"/>
		<stop  offset="0.884" style="stop-color:#2C4023"/>
		<stop  offset="1" style="stop-color:#1A1A1A"/>
	</linearGradient>
	<path id="rdw_1_" class="st1" d="M347.4,757c124.2-168,293-183.6,292.2-401.5c-16.9-110.6-210.6-15.4-245.4,14
		c-34.9,29.4-77.2,88.9-86.4,157.8C298.6,596.1,318.8,710,347.4,757z"/>
	
		<linearGradient id="rdw_4_" gradientUnits="userSpaceOnUse" x1="1047.8794" y1="29.249" x2="789.1423" y2="477.3948" gradientTransform="matrix(1 0 0 -1 0 768)">
		<stop  offset="7.924632e-03" style="stop-color:#1A1A1A"/>
		<stop  offset="2.267934e-02" style="stop-color:#1D201B"/>
		<stop  offset="0.1831" style="stop-color:#385829"/>
		<stop  offset="0.3209" style="stop-color:#4B8133"/>
		<stop  offset="0.4293" style="stop-color:#589A39"/>
		<stop  offset="0.4949" style="stop-color:#5CA33B"/>
		<stop  offset="0.5687" style="stop-color:#569638"/>
		<stop  offset="0.7039" style="stop-color:#467530"/>
		<stop  offset="0.884" style="stop-color:#2C4023"/>
		<stop  offset="1" style="stop-color:#1A1A1A"/>
	</linearGradient>
	<path id="rdw_2_" class="st2" d="M1016.3,757c-124.2-168-293-183.6-292.2-401.5c16.9-110.6,210.6-15.4,245.4,14
		c34.9,29.4,77.2,88.9,86.4,157.8C1064.9,596.1,1044.9,710,1016.3,757z"/>
	
		<linearGradient id="ra_1_" gradientUnits="userSpaceOnUse" x1="744.5499" y1="696.8073" x2="680.6971" y2="521.373" gradientTransform="matrix(1 0 0 -1 0 768)">
		<stop  offset="7.924632e-03" style="stop-color:#1A1A1A"/>
		<stop  offset="2.153886e-02" style="stop-color:#222B1E"/>
		<stop  offset="5.159594e-02" style="stop-color:#324B26"/>
		<stop  offset="8.550343e-02" style="stop-color:#3F672C"/>
		<stop  offset="0.1236" style="stop-color:#4A7D32"/>
		<stop  offset="0.1679" style="stop-color:#528E36"/>
		<stop  offset="0.2222" style="stop-color:#589A39"/>
		<stop  offset="0.2974" style="stop-color:#5BA13B"/>
		<stop  offset="0.4949" style="stop-color:#5CA33B"/>
		<stop  offset="0.562" style="stop-color:#589B39"/>
		<stop  offset="0.6655" style="stop-color:#4E8634"/>
		<stop  offset="0.7922" style="stop-color:#3D622B"/>
		<stop  offset="0.936" style="stop-color:#263220"/>
		<stop  offset="1" style="stop-color:#1A1A1A"/>
	</linearGradient>
	<path id="ra" class="st3" d="M682.8,247.4c0,0,12.9-147.7,66.4-141.3c14.6,1.5,18.4-57-23-21.3S682.8,247.4,682.8,247.4z"/>
	
		<linearGradient id="la_1_" gradientUnits="userSpaceOnUse" x1="684.8856" y1="521.373" x2="621.0327" y2="696.8073" gradientTransform="matrix(1 0 0 -1 0 768)">
		<stop  offset="7.924632e-03" style="stop-color:#1A1A1A"/>
		<stop  offset="2.153886e-02" style="stop-color:#222B1E"/>
		<stop  offset="5.159594e-02" style="stop-color:#324B26"/>
		<stop  offset="8.550343e-02" style="stop-color:#3F672C"/>
		<stop  offset="0.1236" style="stop-color:#4A7D32"/>
		<stop  offset="0.1679" style="stop-color:#528E36"/>
		<stop  offset="0.2222" style="stop-color:#589A39"/>
		<stop  offset="0.2974" style="stop-color:#5BA13B"/>
		<stop  offset="0.4949" style="stop-color:#5CA33B"/>
		<stop  offset="0.562" style="stop-color:#589B39"/>
		<stop  offset="0.6655" style="stop-color:#4E8634"/>
		<stop  offset="0.7922" style="stop-color:#3D622B"/>
		<stop  offset="0.936" style="stop-color:#263220"/>
		<stop  offset="1" style="stop-color:#1A1A1A"/>
	</linearGradient>
	<path id="la" class="st4" d="M682.8,247.4c0,0-12.9-147.7-66.4-141.3c-14.6,1.5-18.4-57,23-21.3
		C680.7,120.5,682.8,247.4,682.8,247.4z"/>
	
		<linearGradient id="luw_1_" gradientUnits="userSpaceOnUse" x1="50.5323" y1="645.519" x2="679.0673" y2="534.6913" gradientTransform="matrix(1 0 0 -1 0 768)">
		<stop  offset="7.924632e-03" style="stop-color:#1A1A1A"/>
		<stop  offset="2.267934e-02" style="stop-color:#1D201B"/>
		<stop  offset="0.1831" style="stop-color:#385829"/>
		<stop  offset="0.3209" style="stop-color:#4B8133"/>
		<stop  offset="0.4293" style="stop-color:#589A39"/>
		<stop  offset="0.4949" style="stop-color:#5CA33B"/>
		<stop  offset="0.5687" style="stop-color:#569638"/>
		<stop  offset="0.7039" style="stop-color:#467530"/>
		<stop  offset="0.884" style="stop-color:#2C4023"/>
		<stop  offset="1" style="stop-color:#1A1A1A"/>
	</linearGradient>
	<path id="luw" class="st5" d="M40.5,204c130.4-2.1,402.8,258.8,627.1,119c21.9-121-97-249.4-150.3-273.4s-145.7-40.7-231-14.2
		c-85.1,26.5-153.4,69.7-166.5,78.3C106.8,122.2,79.3,146.2,40.5,204z"/>
	
		<linearGradient id="ruw_1_" gradientUnits="userSpaceOnUse" x1="682.7673" y1="533.9568" x2="1311.3022" y2="644.7845" gradientTransform="matrix(1 0 0 -1 0 768)">
		<stop  offset="7.924632e-03" style="stop-color:#1A1A1A"/>
		<stop  offset="2.267934e-02" style="stop-color:#1D201B"/>
		<stop  offset="0.1831" style="stop-color:#385829"/>
		<stop  offset="0.3209" style="stop-color:#4B8133"/>
		<stop  offset="0.4293" style="stop-color:#589A39"/>
		<stop  offset="0.4949" style="stop-color:#5CA33B"/>
		<stop  offset="0.5687" style="stop-color:#569638"/>
		<stop  offset="0.7039" style="stop-color:#467530"/>
		<stop  offset="0.884" style="stop-color:#2C4023"/>
		<stop  offset="1" style="stop-color:#1A1A1A"/>
	</linearGradient>
	<path id="ruw" class="st6" d="M1325.5,204c-130.4-2.1-402.8,258.8-627.1,119c-21.9-121,97-249.4,150.3-273.4s145.7-40.7,231-14.2
		c85.1,26.5,153.4,69.7,166.5,78.3S1286.5,146.2,1325.5,204z"/>
	<path class="st7" d="M102,160.4c0,0,241.7-7.9,306.1,17.1c35.7,13.8,118.5,52.4,178,89.7c48,30.1,77.8,61.4,77.8,61.4
		s-50.7,13.4-89.1,35.5c-86.2,50.5-192.6,195.1-203.1,219.5c-11.9,24.4-30.7,94.5-30.7,94.5s20.9-84.9,68.2-139.4
		c35.9-47.4,122.9-128.6,141.1-143.2c25.7-24.4,89.7-45.9,89.7-45.9l42.4-15.2l-6.3-19.4L606,263.5c0,0-131.5-85.8-232.9-103.3
		S102,160.4,102,160.4z"/>
	<path class="st7" d="M1263.8,160.4c0,0-241.7-7.9-306.1,17.1c-35.7,13.8-118.5,52.4-178,89.7c-48,30.1-77.8,61.4-77.8,61.4
		s50.7,13.4,89.1,35.5c86.2,50.5,192.6,195.1,203.1,219.5c11.9,24.4,30.7,94.5,30.7,94.5s-20.9-84.9-68.2-139.4
		C920.1,491.6,833,410.6,815.1,396c-25.7-24.4-89.7-45.9-89.7-45.9L683,334.8l6.3-19.4l70.3-51.5c0,0,131.5-85.8,232.9-103.3
		S1263.8,160.4,1263.8,160.4z"/>
	
		<linearGradient id="SVGID_1_" gradientUnits="userSpaceOnUse" x1="682.7913" y1="208.6255" x2="682.7913" y2="439.432" gradientTransform="matrix(1 0 0 -1 0 768)">
		<stop  offset="7.924632e-03" style="stop-color:#1A1A1A"/>
		<stop  offset="0.105" style="stop-color:#2D4123"/>
		<stop  offset="0.2262" style="stop-color:#416B2E"/>
		<stop  offset="0.3359" style="stop-color:#508A35"/>
		<stop  offset="0.4292" style="stop-color:#599C39"/>
		<stop  offset="0.4949" style="stop-color:#5CA33B"/>
		<stop  offset="0.562" style="stop-color:#589B39"/>
		<stop  offset="0.6655" style="stop-color:#4E8634"/>
		<stop  offset="0.7922" style="stop-color:#3D622B"/>
		<stop  offset="0.936" style="stop-color:#263220"/>
		<stop  offset="1" style="stop-color:#1A1A1A"/>
	</linearGradient>
	<ellipse class="st8" cx="682.8" cy="444" rx="42.4" ry="115.4"/>
</g>
<g id="Layer_1_1_" class="st9">
	
		<image style="display:inline;overflow:visible;enable-background:new    ;" width="300" height="300" xlink:href="62EE18F.png"  transform="matrix(3.8883 0 0 3.8883 54.0882 -129.2457)">
	</image>
</g>
</svg>
